Media Info

General
Complete name                   : Amy Ried - scene from All About Amy Ried.avi
Format                          : AVI
Format/Info                     : Audio Video Interleave
File size                       : 282 MiB
Duration                        : 22m 38s
Overall bit rate                : 1 743 Kbps
Writing library                 : xTI

Video
ID                              : 0
Format                          : MPEG-4 Visual
Format profile                  : Advanced Simple@L5
Format settings, BVOP           : Yes
Format settings, QPel           : No
Format settings, GMC            : No warppoints
Format settings, Matrix         : Default (MPEG)
Codec ID                        : XVID
Codec ID/Hint                   : XviD
Duration                        : 22m 38s
Bit rate                        : 1 538 Kbps
Width                           : 624 pixels
Height                          : 352 pixels
Display aspect ratio            : 16:9
Frame rate                      : 23.976 fps
Resolution                      : 8 bits
Colorimetry                     : 4:2:0
Scan type                       : Progressive
Bits/(Pixel*Frame)              : 0.292
Stream size                     : 249 MiB (88%)
Writing library                 : XviD 1.2.1 (UTC 2008-12-04)

Audio
ID                              : 1
Format                          : AC-3
Format/Info                     : Audio Coding 3
Codec ID                        : 2000
Duration                        : 22m 38s
Bit rate mode                   : Constant
Bit rate                        : 192 Kbps
Channel(s)                      : 2 channels
Channel positions               : L R
Sampling rate                   : 48.0 KHz
Video delay                     : 10ms
Stream size                     : 31.1 MiB (11%)
Alignment                       : Split accross interleaves
Interleave, duration            : 42 ms (1.00 video frame)
Interleave, preload duration    : 41 ms


 
http://bayimg.com/image/nalnkaacc.jpg


When your download is complete, stay and Seed Please.  Thank you for helping out!

EnJoY  :-)
